<mxfile host="app.diagrams.net" agent="Mozilla/5.0 (X11; Linux x86_64) AppleWebKit/537.36 (KHTML, like Gecko) Chrome/126.0.0.0 Safari/537.36" version="24.7.7">
  <diagram name="第 1 页" id="PzokZFdOADGy7_pB55ky">
    <mxGraphModel dx="2004" dy="1119" grid="1" gridSize="10" guides="1" tooltips="1" connect="1" arrows="1" fold="1" page="1" pageScale="1" pageWidth="3300" pageHeight="4681" math="0" shadow="0">
      <root>
        <mxCell id="0" />
        <mxCell id="1" parent="0" />
        <mxCell id="gKqpf_e9eDg5dyG-ftxb-44" value="" style="rounded=0;whiteSpace=wrap;html=1;dashed=1;fillColor=#dae8fc;strokeColor=#6c8ebf;" parent="1" vertex="1">
          <mxGeometry x="1160" y="300" width="140" height="600" as="geometry" />
        </mxCell>
        <mxCell id="i0qUSSeW1kzxF6su9X11-17" value="" style="rounded=1;whiteSpace=wrap;html=1;fillColor=#ffe6cc;strokeColor=#d79b00;glass=0;shadow=1;" parent="1" vertex="1">
          <mxGeometry x="1195" y="2435" width="525" height="505" as="geometry" />
        </mxCell>
        <mxCell id="i0qUSSeW1kzxF6su9X11-16" value="" style="rounded=1;whiteSpace=wrap;html=1;fillColor=#ffe6cc;strokeColor=#d79b00;shadow=1;" parent="1" vertex="1">
          <mxGeometry x="537" y="2435" width="510" height="505" as="geometry" />
        </mxCell>
        <mxCell id="QO4FowlgKa2JyrHLj_sX-2" value="&lt;span style=&quot;font-size: 12px;&quot; data-lucid-content=&quot;{&amp;quot;t&amp;quot;:&amp;quot;CorteX Backend Service&amp;quot;,&amp;quot;m&amp;quot;:[{&amp;quot;s&amp;quot;:0,&amp;quot;n&amp;quot;:&amp;quot;fsp&amp;quot;,&amp;quot;v&amp;quot;:&amp;quot;ss_presetShapeStyle1_textStyle&amp;quot;,&amp;quot;e&amp;quot;:22},{&amp;quot;s&amp;quot;:0,&amp;quot;n&amp;quot;:&amp;quot;fsp2&amp;quot;,&amp;quot;v&amp;quot;:&amp;quot;ss_presetShapeStyle1_textStyle&amp;quot;,&amp;quot;e&amp;quot;:22},{&amp;quot;s&amp;quot;:0,&amp;quot;n&amp;quot;:&amp;quot;s&amp;quot;,&amp;quot;v&amp;quot;:22.22222222222222,&amp;quot;e&amp;quot;:22}]}&quot; data-lucid-type=&quot;application/vnd.lucid.text&quot;&gt;StartX&lt;span style=&quot;font-size: 12px;&quot;&gt;&amp;nbsp;Backend Service&lt;/span&gt;&lt;/span&gt;" style="rounded=0;whiteSpace=wrap;html=1;fontSize=12;fontStyle=0;fontColor=default;fontFamily=Helvetica;" parent="1" vertex="1">
          <mxGeometry x="587" y="2530" width="420" height="60" as="geometry" />
        </mxCell>
        <mxCell id="QO4FowlgKa2JyrHLj_sX-4" value="&lt;span style=&quot;font-size: 12px;&quot; data-lucid-content=&quot;{&amp;quot;t&amp;quot;:&amp;quot;CorteX Backend Service&amp;quot;,&amp;quot;m&amp;quot;:[{&amp;quot;s&amp;quot;:0,&amp;quot;n&amp;quot;:&amp;quot;fsp&amp;quot;,&amp;quot;v&amp;quot;:&amp;quot;ss_presetShapeStyle1_textStyle&amp;quot;,&amp;quot;e&amp;quot;:22},{&amp;quot;s&amp;quot;:0,&amp;quot;n&amp;quot;:&amp;quot;fsp2&amp;quot;,&amp;quot;v&amp;quot;:&amp;quot;ss_presetShapeStyle1_textStyle&amp;quot;,&amp;quot;e&amp;quot;:22},{&amp;quot;s&amp;quot;:0,&amp;quot;n&amp;quot;:&amp;quot;s&amp;quot;,&amp;quot;v&amp;quot;:22.22222222222222,&amp;quot;e&amp;quot;:22}]}&quot; data-lucid-type=&quot;application/vnd.lucid.text&quot;&gt;&lt;span style=&quot;font-size: 12px;&quot;&gt;Prod Backend Service&lt;/span&gt;&lt;/span&gt;" style="rounded=0;whiteSpace=wrap;html=1;fontSize=12;fontStyle=0;fontColor=default;fontFamily=Helvetica;" parent="1" vertex="1">
          <mxGeometry x="1247" y="2530" width="400" height="60" as="geometry" />
        </mxCell>
        <mxCell id="i0qUSSeW1kzxF6su9X11-3" style="edgeStyle=orthogonalEdgeStyle;rounded=0;orthogonalLoop=1;jettySize=auto;html=1;exitX=1;exitY=0.5;exitDx=0;exitDy=0;entryX=0;entryY=0.5;entryDx=0;entryDy=0;" parent="1" source="QO4FowlgKa2JyrHLj_sX-5" target="QO4FowlgKa2JyrHLj_sX-7" edge="1">
          <mxGeometry relative="1" as="geometry" />
        </mxCell>
        <mxCell id="QO4FowlgKa2JyrHLj_sX-5" value="git server" style="rounded=0;whiteSpace=wrap;html=1;fontSize=12;fontStyle=0;fontColor=default;fontFamily=Helvetica;" parent="1" vertex="1">
          <mxGeometry x="837" y="2660" width="170" height="60" as="geometry" />
        </mxCell>
        <mxCell id="QO4FowlgKa2JyrHLj_sX-7" value="git client" style="rounded=0;whiteSpace=wrap;html=1;fontSize=12;fontStyle=0;fontColor=default;fontFamily=Helvetica;" parent="1" vertex="1">
          <mxGeometry x="1247" y="2660" width="170" height="60" as="geometry" />
        </mxCell>
        <mxCell id="QO4FowlgKa2JyrHLj_sX-12" value="&lt;div style=&quot;font-size: 12px;&quot;&gt;deploy(edge mache, module_name, version id)&lt;/div&gt;" style="text;strokeColor=none;align=center;fillColor=none;html=1;verticalAlign=middle;whiteSpace=wrap;rounded=0;fontSize=12;fontStyle=0;fontColor=default;fontFamily=Helvetica;" parent="1" vertex="1">
          <mxGeometry x="1065" y="2500" width="120" height="30" as="geometry" />
        </mxCell>
        <mxCell id="QO4FowlgKa2JyrHLj_sX-15" value="&lt;div style=&quot;font-size: 12px;&quot;&gt;git pull (tag/commit id)&lt;br style=&quot;font-size: 12px;&quot;&gt;&lt;/div&gt;" style="text;strokeColor=none;align=center;fillColor=none;html=1;verticalAlign=middle;whiteSpace=wrap;rounded=0;fontSize=12;fontStyle=0;fontColor=default;fontFamily=Helvetica;" parent="1" vertex="1">
          <mxGeometry x="1257" y="2610" width="60" height="40" as="geometry" />
        </mxCell>
        <mxCell id="rOFp2M5UlcV7_ZdFNBnd-1" value="version management and grayscale deploy" style="text;strokeColor=none;align=center;fillColor=none;html=1;verticalAlign=middle;whiteSpace=wrap;rounded=0;fontSize=12;fontStyle=0;fontFamily=Helvetica;" parent="1" vertex="1">
          <mxGeometry x="657" y="2470" width="100" height="30" as="geometry" />
        </mxCell>
        <mxCell id="rOFp2M5UlcV7_ZdFNBnd-2" value="Add UI page to show all edge&#39;s config version" style="text;strokeColor=none;align=center;fillColor=none;html=1;verticalAlign=middle;whiteSpace=wrap;rounded=0;fontSize=12;fontStyle=0;fontFamily=Helvetica;" parent="1" vertex="1">
          <mxGeometry x="777" y="2470" width="110" height="30" as="geometry" />
        </mxCell>
        <mxCell id="i0qUSSeW1kzxF6su9X11-1" value="model,threshold,toml,post-process,optix-config" style="rounded=0;whiteSpace=wrap;html=1;fontSize=12;fontStyle=0;fontColor=default;fontFamily=Helvetica;" parent="1" vertex="1">
          <mxGeometry x="587" y="2780" width="170" height="60" as="geometry" />
        </mxCell>
        <mxCell id="i0qUSSeW1kzxF6su9X11-2" value="model,threshold,toml,post-process,optix-config" style="rounded=0;whiteSpace=wrap;html=1;fontSize=12;fontStyle=0;fontColor=default;fontFamily=Helvetica;" parent="1" vertex="1">
          <mxGeometry x="1477" y="2770" width="170" height="60" as="geometry" />
        </mxCell>
        <mxCell id="i0qUSSeW1kzxF6su9X11-4" value="git pull (tag/commit id)" style="text;strokeColor=none;align=center;fillColor=none;html=1;verticalAlign=middle;whiteSpace=wrap;rounded=0;" parent="1" vertex="1">
          <mxGeometry x="1080" y="2650" width="90" height="30" as="geometry" />
        </mxCell>
        <mxCell id="i0qUSSeW1kzxF6su9X11-5" value="" style="endArrow=classic;html=1;rounded=0;exitX=0.22;exitY=1.046;exitDx=0;exitDy=0;exitPerimeter=0;" parent="1" source="QO4FowlgKa2JyrHLj_sX-4" target="QO4FowlgKa2JyrHLj_sX-7" edge="1">
          <mxGeometry width="50" height="50" relative="1" as="geometry">
            <mxPoint x="1197" y="2730" as="sourcePoint" />
            <mxPoint x="1247" y="2680" as="targetPoint" />
          </mxGeometry>
        </mxCell>
        <mxCell id="i0qUSSeW1kzxF6su9X11-6" value="" style="endArrow=classic;html=1;rounded=0;exitX=0.795;exitY=1.057;exitDx=0;exitDy=0;exitPerimeter=0;" parent="1" edge="1">
          <mxGeometry width="50" height="50" relative="1" as="geometry">
            <mxPoint x="1447.0000000000002" y="2591.38" as="sourcePoint" />
            <mxPoint x="1447" y="2800" as="targetPoint" />
          </mxGeometry>
        </mxCell>
        <mxCell id="i0qUSSeW1kzxF6su9X11-7" value="&lt;div style=&quot;font-size: 12px;&quot;&gt;copy&lt;/div&gt;&lt;div style=&quot;font-size: 12px;&quot;&gt;module_name&lt;br&gt;&lt;/div&gt;" style="text;strokeColor=none;align=center;fillColor=none;html=1;verticalAlign=middle;whiteSpace=wrap;rounded=0;fontSize=12;fontStyle=0;fontColor=default;fontFamily=Helvetica;" parent="1" vertex="1">
          <mxGeometry x="1407" y="2820" width="80" height="40" as="geometry" />
        </mxCell>
        <mxCell id="i0qUSSeW1kzxF6su9X11-8" value="git client" style="rounded=0;whiteSpace=wrap;html=1;fontSize=12;fontStyle=0;fontColor=default;fontFamily=Helvetica;" parent="1" vertex="1">
          <mxGeometry x="587" y="2660" width="170" height="60" as="geometry" />
        </mxCell>
        <mxCell id="i0qUSSeW1kzxF6su9X11-9" value="" style="endArrow=classic;html=1;rounded=0;exitX=0.5;exitY=0;exitDx=0;exitDy=0;" parent="1" source="i0qUSSeW1kzxF6su9X11-1" target="i0qUSSeW1kzxF6su9X11-8" edge="1">
          <mxGeometry width="50" height="50" relative="1" as="geometry">
            <mxPoint x="1127" y="2730" as="sourcePoint" />
            <mxPoint x="1177" y="2680" as="targetPoint" />
          </mxGeometry>
        </mxCell>
        <mxCell id="i0qUSSeW1kzxF6su9X11-12" value="" style="endArrow=classic;html=1;rounded=0;exitX=1;exitY=0.5;exitDx=0;exitDy=0;entryX=0;entryY=0.5;entryDx=0;entryDy=0;" parent="1" source="i0qUSSeW1kzxF6su9X11-8" target="QO4FowlgKa2JyrHLj_sX-5" edge="1">
          <mxGeometry width="50" height="50" relative="1" as="geometry">
            <mxPoint x="1127" y="2730" as="sourcePoint" />
            <mxPoint x="1177" y="2680" as="targetPoint" />
          </mxGeometry>
        </mxCell>
        <mxCell id="i0qUSSeW1kzxF6su9X11-13" value="" style="endArrow=classic;html=1;rounded=0;exitX=0.204;exitY=0.977;exitDx=0;exitDy=0;exitPerimeter=0;entryX=0.5;entryY=0;entryDx=0;entryDy=0;" parent="1" source="QO4FowlgKa2JyrHLj_sX-2" target="i0qUSSeW1kzxF6su9X11-8" edge="1">
          <mxGeometry width="50" height="50" relative="1" as="geometry">
            <mxPoint x="1127" y="2730" as="sourcePoint" />
            <mxPoint x="1177" y="2680" as="targetPoint" />
          </mxGeometry>
        </mxCell>
        <mxCell id="i0qUSSeW1kzxF6su9X11-14" value="&lt;div&gt;git tag&lt;/div&gt;git push" style="text;strokeColor=none;align=center;fillColor=none;html=1;verticalAlign=middle;whiteSpace=wrap;rounded=0;" parent="1" vertex="1">
          <mxGeometry x="687" y="2605" width="60" height="30" as="geometry" />
        </mxCell>
        <mxCell id="i0qUSSeW1kzxF6su9X11-15" value="&lt;div&gt;git tag&lt;/div&gt;git push" style="text;strokeColor=none;align=center;fillColor=none;html=1;verticalAlign=middle;whiteSpace=wrap;rounded=0;" parent="1" vertex="1">
          <mxGeometry x="767" y="2650" width="60" height="30" as="geometry" />
        </mxCell>
        <mxCell id="i0qUSSeW1kzxF6su9X11-18" value="git dir" style="rounded=0;whiteSpace=wrap;html=1;fontSize=12;fontStyle=0;fontColor=default;fontFamily=Helvetica;" parent="1" vertex="1">
          <mxGeometry x="1247" y="2770" width="170" height="60" as="geometry" />
        </mxCell>
        <mxCell id="i0qUSSeW1kzxF6su9X11-19" value="" style="endArrow=classic;html=1;rounded=0;exitX=0.5;exitY=1;exitDx=0;exitDy=0;" parent="1" source="QO4FowlgKa2JyrHLj_sX-7" target="i0qUSSeW1kzxF6su9X11-18" edge="1">
          <mxGeometry width="50" height="50" relative="1" as="geometry">
            <mxPoint x="1197" y="2730" as="sourcePoint" />
            <mxPoint x="1247" y="2680" as="targetPoint" />
          </mxGeometry>
        </mxCell>
        <mxCell id="i0qUSSeW1kzxF6su9X11-20" value="" style="endArrow=classic;html=1;rounded=0;exitX=1;exitY=0.5;exitDx=0;exitDy=0;entryX=0;entryY=0.5;entryDx=0;entryDy=0;" parent="1" source="i0qUSSeW1kzxF6su9X11-18" target="i0qUSSeW1kzxF6su9X11-2" edge="1">
          <mxGeometry width="50" height="50" relative="1" as="geometry">
            <mxPoint x="1197" y="2730" as="sourcePoint" />
            <mxPoint x="1247" y="2680" as="targetPoint" />
          </mxGeometry>
        </mxCell>
        <mxCell id="i0qUSSeW1kzxF6su9X11-24" value="Central" style="text;strokeColor=none;align=center;fillColor=none;html=1;verticalAlign=middle;whiteSpace=wrap;rounded=0;fontSize=20;fontStyle=1" parent="1" vertex="1">
          <mxGeometry x="761" y="2890" width="60" height="30" as="geometry" />
        </mxCell>
        <mxCell id="i0qUSSeW1kzxF6su9X11-25" value="Edge" style="text;strokeColor=none;align=center;fillColor=none;html=1;verticalAlign=middle;whiteSpace=wrap;rounded=0;fontSize=20;fontStyle=1" parent="1" vertex="1">
          <mxGeometry x="1427" y="2890" width="60" height="30" as="geometry" />
        </mxCell>
        <mxCell id="i0qUSSeW1kzxF6su9X11-26" value="" style="shape=cylinder3;whiteSpace=wrap;html=1;boundedLbl=1;backgroundOutline=1;size=15;" parent="1" vertex="1">
          <mxGeometry x="1532" y="2650" width="60" height="80" as="geometry" />
        </mxCell>
        <mxCell id="i0qUSSeW1kzxF6su9X11-28" value="" style="endArrow=classic;startArrow=classic;html=1;rounded=0;entryX=0.79;entryY=1.056;entryDx=0;entryDy=0;entryPerimeter=0;" parent="1" source="i0qUSSeW1kzxF6su9X11-26" target="QO4FowlgKa2JyrHLj_sX-4" edge="1">
          <mxGeometry width="50" height="50" relative="1" as="geometry">
            <mxPoint x="1300" y="2740" as="sourcePoint" />
            <mxPoint x="1350" y="2690" as="targetPoint" />
          </mxGeometry>
        </mxCell>
        <mxCell id="i0qUSSeW1kzxF6su9X11-30" value="module_name&lt;div&gt;version_id&lt;/div&gt;" style="text;strokeColor=none;align=center;fillColor=none;html=1;verticalAlign=middle;whiteSpace=wrap;rounded=0;" parent="1" vertex="1">
          <mxGeometry x="1610" y="2680" width="60" height="30" as="geometry" />
        </mxCell>
        <mxCell id="i0qUSSeW1kzxF6su9X11-31" value="&lt;div style=&quot;font-size: 12px;&quot;&gt;module_name version id&lt;/div&gt;" style="text;strokeColor=none;align=center;fillColor=none;html=1;verticalAlign=middle;whiteSpace=wrap;rounded=0;fontSize=12;fontStyle=0;fontColor=default;fontFamily=Helvetica;" parent="1" vertex="1">
          <mxGeometry x="1065" y="2590" width="120" height="30" as="geometry" />
        </mxCell>
        <mxCell id="i0qUSSeW1kzxF6su9X11-32" value="" style="endArrow=classic;html=1;rounded=0;exitX=1;exitY=0.25;exitDx=0;exitDy=0;entryX=0;entryY=0.25;entryDx=0;entryDy=0;" parent="1" source="QO4FowlgKa2JyrHLj_sX-2" target="QO4FowlgKa2JyrHLj_sX-4" edge="1">
          <mxGeometry width="50" height="50" relative="1" as="geometry">
            <mxPoint x="1300" y="2740" as="sourcePoint" />
            <mxPoint x="1350" y="2690" as="targetPoint" />
          </mxGeometry>
        </mxCell>
        <mxCell id="i0qUSSeW1kzxF6su9X11-33" value="" style="endArrow=classic;html=1;rounded=0;exitX=0;exitY=0.75;exitDx=0;exitDy=0;" parent="1" source="QO4FowlgKa2JyrHLj_sX-4" edge="1">
          <mxGeometry width="50" height="50" relative="1" as="geometry">
            <mxPoint x="1300" y="2740" as="sourcePoint" />
            <mxPoint x="1010" y="2575" as="targetPoint" />
          </mxGeometry>
        </mxCell>
        <mxCell id="i0qUSSeW1kzxF6su9X11-34" value="" style="rounded=1;whiteSpace=wrap;html=1;fillColor=#ffe6cc;strokeColor=#d79b00;glass=0;shadow=1;" parent="1" vertex="1">
          <mxGeometry x="1195" y="3120" width="525" height="505" as="geometry" />
        </mxCell>
        <mxCell id="i0qUSSeW1kzxF6su9X11-35" value="" style="rounded=1;whiteSpace=wrap;html=1;fillColor=#ffe6cc;strokeColor=#d79b00;shadow=1;" parent="1" vertex="1">
          <mxGeometry x="370" y="3120" width="677" height="505" as="geometry" />
        </mxCell>
        <mxCell id="i0qUSSeW1kzxF6su9X11-36" value="&lt;span style=&quot;font-size: 12px;&quot; data-lucid-content=&quot;{&amp;quot;t&amp;quot;:&amp;quot;CorteX Backend Service&amp;quot;,&amp;quot;m&amp;quot;:[{&amp;quot;s&amp;quot;:0,&amp;quot;n&amp;quot;:&amp;quot;fsp&amp;quot;,&amp;quot;v&amp;quot;:&amp;quot;ss_presetShapeStyle1_textStyle&amp;quot;,&amp;quot;e&amp;quot;:22},{&amp;quot;s&amp;quot;:0,&amp;quot;n&amp;quot;:&amp;quot;fsp2&amp;quot;,&amp;quot;v&amp;quot;:&amp;quot;ss_presetShapeStyle1_textStyle&amp;quot;,&amp;quot;e&amp;quot;:22},{&amp;quot;s&amp;quot;:0,&amp;quot;n&amp;quot;:&amp;quot;s&amp;quot;,&amp;quot;v&amp;quot;:22.22222222222222,&amp;quot;e&amp;quot;:22}]}&quot; data-lucid-type=&quot;application/vnd.lucid.text&quot;&gt;&lt;span style=&quot;font-size: 12px;&quot;&gt;StartX Backend Service&lt;/span&gt;&lt;/span&gt;" style="rounded=0;whiteSpace=wrap;html=1;fontSize=12;fontStyle=0;fontColor=default;fontFamily=Helvetica;" parent="1" vertex="1">
          <mxGeometry x="420" y="3215" width="587" height="60" as="geometry" />
        </mxCell>
        <mxCell id="i0qUSSeW1kzxF6su9X11-37" value="&lt;span style=&quot;font-size: 12px;&quot; data-lucid-content=&quot;{&amp;quot;t&amp;quot;:&amp;quot;CorteX Backend Service&amp;quot;,&amp;quot;m&amp;quot;:[{&amp;quot;s&amp;quot;:0,&amp;quot;n&amp;quot;:&amp;quot;fsp&amp;quot;,&amp;quot;v&amp;quot;:&amp;quot;ss_presetShapeStyle1_textStyle&amp;quot;,&amp;quot;e&amp;quot;:22},{&amp;quot;s&amp;quot;:0,&amp;quot;n&amp;quot;:&amp;quot;fsp2&amp;quot;,&amp;quot;v&amp;quot;:&amp;quot;ss_presetShapeStyle1_textStyle&amp;quot;,&amp;quot;e&amp;quot;:22},{&amp;quot;s&amp;quot;:0,&amp;quot;n&amp;quot;:&amp;quot;s&amp;quot;,&amp;quot;v&amp;quot;:22.22222222222222,&amp;quot;e&amp;quot;:22}]}&quot; data-lucid-type=&quot;application/vnd.lucid.text&quot;&gt;&lt;span style=&quot;font-size: 12px;&quot;&gt;Prod Backend Service&lt;/span&gt;&lt;/span&gt;" style="rounded=0;whiteSpace=wrap;html=1;fontSize=12;fontStyle=0;fontColor=default;fontFamily=Helvetica;" parent="1" vertex="1">
          <mxGeometry x="1247" y="3215" width="400" height="60" as="geometry" />
        </mxCell>
        <mxCell id="i0qUSSeW1kzxF6su9X11-39" value="git server" style="rounded=0;whiteSpace=wrap;html=1;fontSize=12;fontStyle=0;fontColor=default;fontFamily=Helvetica;" parent="1" vertex="1">
          <mxGeometry x="837" y="3345" width="170" height="60" as="geometry" />
        </mxCell>
        <mxCell id="i0qUSSeW1kzxF6su9X11-41" value="&lt;div style=&quot;font-size: 12px;&quot;&gt;deploy(edge mache, module_name, version id)&lt;/div&gt;" style="text;strokeColor=none;align=center;fillColor=none;html=1;verticalAlign=middle;whiteSpace=wrap;rounded=0;fontSize=12;fontStyle=0;fontColor=default;fontFamily=Helvetica;" parent="1" vertex="1">
          <mxGeometry x="1065" y="3185" width="120" height="30" as="geometry" />
        </mxCell>
        <mxCell id="i0qUSSeW1kzxF6su9X11-43" value="version management and grayscale deploy" style="text;strokeColor=none;align=center;fillColor=none;html=1;verticalAlign=middle;whiteSpace=wrap;rounded=0;fontSize=12;fontStyle=0;fontFamily=Helvetica;" parent="1" vertex="1">
          <mxGeometry x="550" y="3155" width="100" height="30" as="geometry" />
        </mxCell>
        <mxCell id="i0qUSSeW1kzxF6su9X11-44" value="Add UI page to show all edge&#39;s config version" style="text;strokeColor=none;align=center;fillColor=none;html=1;verticalAlign=middle;whiteSpace=wrap;rounded=0;fontSize=12;fontStyle=0;fontFamily=Helvetica;" parent="1" vertex="1">
          <mxGeometry x="761" y="3155" width="110" height="30" as="geometry" />
        </mxCell>
        <mxCell id="i0qUSSeW1kzxF6su9X11-45" value="model,threshold,toml,post-process,optix-config" style="rounded=0;whiteSpace=wrap;html=1;fontSize=12;fontStyle=0;fontColor=default;fontFamily=Helvetica;" parent="1" vertex="1">
          <mxGeometry x="587" y="3465" width="170" height="60" as="geometry" />
        </mxCell>
        <mxCell id="i0qUSSeW1kzxF6su9X11-46" value="model,threshold,toml,post-process,optix-config" style="rounded=0;whiteSpace=wrap;html=1;fontSize=12;fontStyle=0;fontColor=default;fontFamily=Helvetica;" parent="1" vertex="1">
          <mxGeometry x="1300" y="3420" width="170" height="60" as="geometry" />
        </mxCell>
        <mxCell id="i0qUSSeW1kzxF6su9X11-49" value="" style="endArrow=classic;html=1;rounded=0;exitX=0.795;exitY=1.057;exitDx=0;exitDy=0;exitPerimeter=0;entryX=0.5;entryY=0;entryDx=0;entryDy=0;" parent="1" target="i0qUSSeW1kzxF6su9X11-46" edge="1">
          <mxGeometry width="50" height="50" relative="1" as="geometry">
            <mxPoint x="1385.0000000000002" y="3276.38" as="sourcePoint" />
            <mxPoint x="1385" y="3410" as="targetPoint" />
          </mxGeometry>
        </mxCell>
        <mxCell id="i0qUSSeW1kzxF6su9X11-51" value="git client" style="rounded=0;whiteSpace=wrap;html=1;fontSize=12;fontStyle=0;fontColor=default;fontFamily=Helvetica;" parent="1" vertex="1">
          <mxGeometry x="587" y="3345" width="170" height="60" as="geometry" />
        </mxCell>
        <mxCell id="i0qUSSeW1kzxF6su9X11-52" value="" style="endArrow=classic;html=1;rounded=0;exitX=0.5;exitY=0;exitDx=0;exitDy=0;" parent="1" source="i0qUSSeW1kzxF6su9X11-45" target="i0qUSSeW1kzxF6su9X11-51" edge="1">
          <mxGeometry width="50" height="50" relative="1" as="geometry">
            <mxPoint x="1127" y="3415" as="sourcePoint" />
            <mxPoint x="1177" y="3365" as="targetPoint" />
          </mxGeometry>
        </mxCell>
        <mxCell id="i0qUSSeW1kzxF6su9X11-53" value="" style="endArrow=classic;html=1;rounded=0;exitX=1;exitY=0.5;exitDx=0;exitDy=0;entryX=0;entryY=0.5;entryDx=0;entryDy=0;" parent="1" source="i0qUSSeW1kzxF6su9X11-51" target="i0qUSSeW1kzxF6su9X11-39" edge="1">
          <mxGeometry width="50" height="50" relative="1" as="geometry">
            <mxPoint x="1127" y="3415" as="sourcePoint" />
            <mxPoint x="1177" y="3365" as="targetPoint" />
          </mxGeometry>
        </mxCell>
        <mxCell id="i0qUSSeW1kzxF6su9X11-54" value="" style="endArrow=classic;html=1;rounded=0;exitX=0.429;exitY=0.977;exitDx=0;exitDy=0;exitPerimeter=0;entryX=0.5;entryY=0;entryDx=0;entryDy=0;" parent="1" edge="1">
          <mxGeometry width="50" height="50" relative="1" as="geometry">
            <mxPoint x="650.0029999999998" y="3273.62" as="sourcePoint" />
            <mxPoint x="650.18" y="3345" as="targetPoint" />
          </mxGeometry>
        </mxCell>
        <mxCell id="i0qUSSeW1kzxF6su9X11-55" value="&lt;div&gt;git tag&lt;/div&gt;git push" style="text;strokeColor=none;align=center;fillColor=none;html=1;verticalAlign=middle;whiteSpace=wrap;rounded=0;" parent="1" vertex="1">
          <mxGeometry x="580" y="3290" width="60" height="30" as="geometry" />
        </mxCell>
        <mxCell id="i0qUSSeW1kzxF6su9X11-56" value="&lt;div&gt;git tag&lt;/div&gt;git push" style="text;strokeColor=none;align=center;fillColor=none;html=1;verticalAlign=middle;whiteSpace=wrap;rounded=0;" parent="1" vertex="1">
          <mxGeometry x="767" y="3335" width="60" height="30" as="geometry" />
        </mxCell>
        <mxCell id="i0qUSSeW1kzxF6su9X11-60" value="Central" style="text;strokeColor=none;align=center;fillColor=none;html=1;verticalAlign=middle;whiteSpace=wrap;rounded=0;fontSize=20;fontStyle=1" parent="1" vertex="1">
          <mxGeometry x="683.5" y="3575" width="60" height="30" as="geometry" />
        </mxCell>
        <mxCell id="i0qUSSeW1kzxF6su9X11-61" value="Edge" style="text;strokeColor=none;align=center;fillColor=none;html=1;verticalAlign=middle;whiteSpace=wrap;rounded=0;fontSize=20;fontStyle=1" parent="1" vertex="1">
          <mxGeometry x="1427" y="3575" width="60" height="30" as="geometry" />
        </mxCell>
        <mxCell id="i0qUSSeW1kzxF6su9X11-62" value="" style="shape=cylinder3;whiteSpace=wrap;html=1;boundedLbl=1;backgroundOutline=1;size=15;" parent="1" vertex="1">
          <mxGeometry x="440" y="3340" width="60" height="80" as="geometry" />
        </mxCell>
        <mxCell id="i0qUSSeW1kzxF6su9X11-63" value="" style="endArrow=classic;startArrow=classic;html=1;rounded=0;entryX=0.087;entryY=1.028;entryDx=0;entryDy=0;entryPerimeter=0;" parent="1" source="i0qUSSeW1kzxF6su9X11-62" target="i0qUSSeW1kzxF6su9X11-36" edge="1">
          <mxGeometry width="50" height="50" relative="1" as="geometry">
            <mxPoint x="1300" y="3425" as="sourcePoint" />
            <mxPoint x="1350" y="3375" as="targetPoint" />
          </mxGeometry>
        </mxCell>
        <mxCell id="i0qUSSeW1kzxF6su9X11-65" value="&lt;div style=&quot;font-size: 12px;&quot;&gt;module_name version id&lt;/div&gt;" style="text;strokeColor=none;align=center;fillColor=none;html=1;verticalAlign=middle;whiteSpace=wrap;rounded=0;fontSize=12;fontStyle=0;fontColor=default;fontFamily=Helvetica;" parent="1" vertex="1">
          <mxGeometry x="1065" y="3275" width="120" height="30" as="geometry" />
        </mxCell>
        <mxCell id="i0qUSSeW1kzxF6su9X11-66" value="" style="endArrow=classic;html=1;rounded=0;exitX=1;exitY=0.25;exitDx=0;exitDy=0;entryX=0;entryY=0.25;entryDx=0;entryDy=0;" parent="1" source="i0qUSSeW1kzxF6su9X11-36" target="i0qUSSeW1kzxF6su9X11-37" edge="1">
          <mxGeometry width="50" height="50" relative="1" as="geometry">
            <mxPoint x="1300" y="3425" as="sourcePoint" />
            <mxPoint x="1350" y="3375" as="targetPoint" />
          </mxGeometry>
        </mxCell>
        <mxCell id="i0qUSSeW1kzxF6su9X11-67" value="" style="endArrow=classic;html=1;rounded=0;exitX=0;exitY=0.75;exitDx=0;exitDy=0;" parent="1" source="i0qUSSeW1kzxF6su9X11-37" edge="1">
          <mxGeometry width="50" height="50" relative="1" as="geometry">
            <mxPoint x="1300" y="3425" as="sourcePoint" />
            <mxPoint x="1010" y="3260" as="targetPoint" />
          </mxGeometry>
        </mxCell>
        <mxCell id="i0qUSSeW1kzxF6su9X11-69" value="module_name&lt;div&gt;version_id&lt;/div&gt;" style="text;strokeColor=none;align=center;fillColor=none;html=1;verticalAlign=middle;whiteSpace=wrap;rounded=0;" parent="1" vertex="1">
          <mxGeometry x="490" y="3290" width="60" height="30" as="geometry" />
        </mxCell>
        <mxCell id="i0qUSSeW1kzxF6su9X11-70" value="" style="endArrow=classic;html=1;rounded=0;exitX=0.681;exitY=0;exitDx=0;exitDy=0;entryX=0.482;entryY=1.028;entryDx=0;entryDy=0;entryPerimeter=0;exitPerimeter=0;" parent="1" source="i0qUSSeW1kzxF6su9X11-51" target="i0qUSSeW1kzxF6su9X11-36" edge="1">
          <mxGeometry width="50" height="50" relative="1" as="geometry">
            <mxPoint x="705" y="3350" as="sourcePoint" />
            <mxPoint x="714" y="3275" as="targetPoint" />
          </mxGeometry>
        </mxCell>
        <mxCell id="i0qUSSeW1kzxF6su9X11-71" value="&lt;div&gt;git tag&lt;/div&gt;git pull" style="text;strokeColor=none;align=center;fillColor=none;html=1;verticalAlign=middle;whiteSpace=wrap;rounded=0;" parent="1" vertex="1">
          <mxGeometry x="707" y="3290" width="60" height="30" as="geometry" />
        </mxCell>
        <mxCell id="bRRxqf0Hs2Emt1WZWNBF-1" value="" style="rounded=1;whiteSpace=wrap;html=1;fillColor=#ffe6cc;strokeColor=#d79b00;glass=0;shadow=1;" parent="1" vertex="1">
          <mxGeometry x="1195" y="3880" width="685" height="505" as="geometry" />
        </mxCell>
        <mxCell id="bRRxqf0Hs2Emt1WZWNBF-2" value="" style="rounded=1;whiteSpace=wrap;html=1;fillColor=#ffe6cc;strokeColor=#d79b00;shadow=1;" parent="1" vertex="1">
          <mxGeometry x="370" y="3887.5" width="677" height="505" as="geometry" />
        </mxCell>
        <mxCell id="bRRxqf0Hs2Emt1WZWNBF-3" value="&lt;span style=&quot;font-size: 12px;&quot; data-lucid-content=&quot;{&amp;quot;t&amp;quot;:&amp;quot;CorteX Backend Service&amp;quot;,&amp;quot;m&amp;quot;:[{&amp;quot;s&amp;quot;:0,&amp;quot;n&amp;quot;:&amp;quot;fsp&amp;quot;,&amp;quot;v&amp;quot;:&amp;quot;ss_presetShapeStyle1_textStyle&amp;quot;,&amp;quot;e&amp;quot;:22},{&amp;quot;s&amp;quot;:0,&amp;quot;n&amp;quot;:&amp;quot;fsp2&amp;quot;,&amp;quot;v&amp;quot;:&amp;quot;ss_presetShapeStyle1_textStyle&amp;quot;,&amp;quot;e&amp;quot;:22},{&amp;quot;s&amp;quot;:0,&amp;quot;n&amp;quot;:&amp;quot;s&amp;quot;,&amp;quot;v&amp;quot;:22.22222222222222,&amp;quot;e&amp;quot;:22}]}&quot; data-lucid-type=&quot;application/vnd.lucid.text&quot;&gt;StartX&lt;span style=&quot;font-size: 12px;&quot;&gt;&amp;nbsp;Backend Service&lt;/span&gt;&lt;/span&gt;" style="rounded=0;whiteSpace=wrap;html=1;fontSize=12;fontStyle=0;fontColor=default;fontFamily=Helvetica;" parent="1" vertex="1">
          <mxGeometry x="420" y="3975" width="587" height="60" as="geometry" />
        </mxCell>
        <mxCell id="bRRxqf0Hs2Emt1WZWNBF-4" value="&lt;span style=&quot;font-size: 12px;&quot; data-lucid-content=&quot;{&amp;quot;t&amp;quot;:&amp;quot;CorteX Backend Service&amp;quot;,&amp;quot;m&amp;quot;:[{&amp;quot;s&amp;quot;:0,&amp;quot;n&amp;quot;:&amp;quot;fsp&amp;quot;,&amp;quot;v&amp;quot;:&amp;quot;ss_presetShapeStyle1_textStyle&amp;quot;,&amp;quot;e&amp;quot;:22},{&amp;quot;s&amp;quot;:0,&amp;quot;n&amp;quot;:&amp;quot;fsp2&amp;quot;,&amp;quot;v&amp;quot;:&amp;quot;ss_presetShapeStyle1_textStyle&amp;quot;,&amp;quot;e&amp;quot;:22},{&amp;quot;s&amp;quot;:0,&amp;quot;n&amp;quot;:&amp;quot;s&amp;quot;,&amp;quot;v&amp;quot;:22.22222222222222,&amp;quot;e&amp;quot;:22}]}&quot; data-lucid-type=&quot;application/vnd.lucid.text&quot;&gt;&lt;span style=&quot;font-size: 12px;&quot;&gt;Prod Backend Service&lt;/span&gt;&lt;/span&gt;" style="rounded=0;whiteSpace=wrap;html=1;fontSize=12;fontStyle=0;fontColor=default;fontFamily=Helvetica;" parent="1" vertex="1">
          <mxGeometry x="1247" y="3975" width="573" height="60" as="geometry" />
        </mxCell>
        <mxCell id="bRRxqf0Hs2Emt1WZWNBF-6" value="&lt;div style=&quot;font-size: 12px;&quot;&gt;deploy(edge_mache, module_name, version_id)&lt;/div&gt;" style="text;strokeColor=none;align=center;fillColor=none;html=1;verticalAlign=middle;whiteSpace=wrap;rounded=0;fontSize=12;fontStyle=0;fontColor=default;fontFamily=Helvetica;" parent="1" vertex="1">
          <mxGeometry x="1065" y="3961" width="120" height="30" as="geometry" />
        </mxCell>
        <mxCell id="bRRxqf0Hs2Emt1WZWNBF-7" value="version management and grayscale deploy" style="text;strokeColor=none;align=center;fillColor=none;html=1;verticalAlign=middle;whiteSpace=wrap;rounded=0;fontSize=12;fontStyle=0;fontFamily=Helvetica;" parent="1" vertex="1">
          <mxGeometry x="550" y="3915" width="100" height="30" as="geometry" />
        </mxCell>
        <mxCell id="bRRxqf0Hs2Emt1WZWNBF-8" value="Add UI page to show all edge&#39;s config version" style="text;strokeColor=none;align=center;fillColor=none;html=1;verticalAlign=middle;whiteSpace=wrap;rounded=0;fontSize=12;fontStyle=0;fontFamily=Helvetica;" parent="1" vertex="1">
          <mxGeometry x="761" y="3915" width="110" height="30" as="geometry" />
        </mxCell>
        <mxCell id="bRRxqf0Hs2Emt1WZWNBF-9" value="model,threshold,toml,post-process,optix-config,startx-config" style="rounded=0;whiteSpace=wrap;html=1;fontSize=12;fontStyle=0;fontColor=default;fontFamily=Helvetica;" parent="1" vertex="1">
          <mxGeometry x="587" y="4225" width="170" height="60" as="geometry" />
        </mxCell>
        <mxCell id="bRRxqf0Hs2Emt1WZWNBF-10" value="model,threshold,toml,post-process,optix-config" style="rounded=0;whiteSpace=wrap;html=1;fontSize=12;fontStyle=0;fontColor=default;fontFamily=Helvetica;" parent="1" vertex="1">
          <mxGeometry x="1460" y="4180" width="170" height="60" as="geometry" />
        </mxCell>
        <mxCell id="bRRxqf0Hs2Emt1WZWNBF-11" value="" style="endArrow=classic;html=1;rounded=0;exitX=0.795;exitY=1.057;exitDx=0;exitDy=0;exitPerimeter=0;entryX=0.5;entryY=0;entryDx=0;entryDy=0;" parent="1" edge="1">
          <mxGeometry width="50" height="50" relative="1" as="geometry">
            <mxPoint x="1543.0000000000002" y="4036.38" as="sourcePoint" />
            <mxPoint x="1543" y="4180" as="targetPoint" />
          </mxGeometry>
        </mxCell>
        <mxCell id="bRRxqf0Hs2Emt1WZWNBF-12" value="~/unitx_data/module_version/&lt;div&gt;{module_name}/{version_id}&lt;/div&gt;" style="rounded=0;whiteSpace=wrap;html=1;fontSize=12;fontStyle=0;fontColor=default;fontFamily=Helvetica;" parent="1" vertex="1">
          <mxGeometry x="587" y="4105" width="170" height="60" as="geometry" />
        </mxCell>
        <mxCell id="bRRxqf0Hs2Emt1WZWNBF-13" value="" style="endArrow=classic;html=1;rounded=0;exitX=0.5;exitY=0;exitDx=0;exitDy=0;" parent="1" source="bRRxqf0Hs2Emt1WZWNBF-9" target="bRRxqf0Hs2Emt1WZWNBF-12" edge="1">
          <mxGeometry width="50" height="50" relative="1" as="geometry">
            <mxPoint x="1127" y="4175" as="sourcePoint" />
            <mxPoint x="1177" y="4125" as="targetPoint" />
          </mxGeometry>
        </mxCell>
        <mxCell id="bRRxqf0Hs2Emt1WZWNBF-15" value="" style="endArrow=classic;html=1;rounded=0;exitX=0.429;exitY=0.977;exitDx=0;exitDy=0;exitPerimeter=0;entryX=0.5;entryY=0;entryDx=0;entryDy=0;" parent="1" edge="1">
          <mxGeometry width="50" height="50" relative="1" as="geometry">
            <mxPoint x="650.0029999999998" y="4033.62" as="sourcePoint" />
            <mxPoint x="650.18" y="4105" as="targetPoint" />
          </mxGeometry>
        </mxCell>
        <mxCell id="bRRxqf0Hs2Emt1WZWNBF-16" value="save config by version id&lt;div&gt;&lt;/div&gt;" style="text;strokeColor=none;align=center;fillColor=none;html=1;verticalAlign=middle;whiteSpace=wrap;rounded=0;" parent="1" vertex="1">
          <mxGeometry x="570" y="4050" width="70" height="30" as="geometry" />
        </mxCell>
        <mxCell id="bRRxqf0Hs2Emt1WZWNBF-18" value="Central" style="text;strokeColor=none;align=center;fillColor=none;html=1;verticalAlign=middle;whiteSpace=wrap;rounded=0;fontSize=20;fontStyle=1" parent="1" vertex="1">
          <mxGeometry x="683.5" y="4335" width="60" height="30" as="geometry" />
        </mxCell>
        <mxCell id="bRRxqf0Hs2Emt1WZWNBF-19" value="Edge" style="text;strokeColor=none;align=center;fillColor=none;html=1;verticalAlign=middle;whiteSpace=wrap;rounded=0;fontSize=20;fontStyle=1" parent="1" vertex="1">
          <mxGeometry x="1507.5" y="4335" width="60" height="30" as="geometry" />
        </mxCell>
        <mxCell id="bRRxqf0Hs2Emt1WZWNBF-20" value="" style="shape=cylinder3;whiteSpace=wrap;html=1;boundedLbl=1;backgroundOutline=1;size=15;" parent="1" vertex="1">
          <mxGeometry x="856" y="4100" width="60" height="80" as="geometry" />
        </mxCell>
        <mxCell id="bRRxqf0Hs2Emt1WZWNBF-21" value="" style="endArrow=classic;startArrow=classic;html=1;rounded=0;entryX=0.087;entryY=1.028;entryDx=0;entryDy=0;entryPerimeter=0;" parent="1" source="bRRxqf0Hs2Emt1WZWNBF-20" edge="1">
          <mxGeometry width="50" height="50" relative="1" as="geometry">
            <mxPoint x="1716" y="4185" as="sourcePoint" />
            <mxPoint x="887.069" y="4036.6800000000003" as="targetPoint" />
          </mxGeometry>
        </mxCell>
        <mxCell id="bRRxqf0Hs2Emt1WZWNBF-23" value="" style="endArrow=classic;html=1;rounded=0;exitX=1;exitY=0.25;exitDx=0;exitDy=0;entryX=0;entryY=0.25;entryDx=0;entryDy=0;" parent="1" edge="1">
          <mxGeometry width="50" height="50" relative="1" as="geometry">
            <mxPoint x="1007" y="4006" as="sourcePoint" />
            <mxPoint x="1247" y="4006" as="targetPoint" />
          </mxGeometry>
        </mxCell>
        <mxCell id="bRRxqf0Hs2Emt1WZWNBF-25" value="module_name&lt;div&gt;version_id&lt;/div&gt;" style="text;strokeColor=none;align=center;fillColor=none;html=1;verticalAlign=middle;whiteSpace=wrap;rounded=0;" parent="1" vertex="1">
          <mxGeometry x="906" y="4050" width="60" height="30" as="geometry" />
        </mxCell>
        <mxCell id="bRRxqf0Hs2Emt1WZWNBF-26" value="" style="endArrow=classic;html=1;rounded=0;exitX=0.681;exitY=0;exitDx=0;exitDy=0;entryX=0.482;entryY=1.028;entryDx=0;entryDy=0;entryPerimeter=0;exitPerimeter=0;" parent="1" source="bRRxqf0Hs2Emt1WZWNBF-12" target="bRRxqf0Hs2Emt1WZWNBF-3" edge="1">
          <mxGeometry width="50" height="50" relative="1" as="geometry">
            <mxPoint x="705" y="4110" as="sourcePoint" />
            <mxPoint x="714" y="4035" as="targetPoint" />
          </mxGeometry>
        </mxCell>
        <mxCell id="bRRxqf0Hs2Emt1WZWNBF-27" value="get config by version id" style="text;strokeColor=none;align=center;fillColor=none;html=1;verticalAlign=middle;whiteSpace=wrap;rounded=0;" parent="1" vertex="1">
          <mxGeometry x="707" y="4050" width="60" height="30" as="geometry" />
        </mxCell>
        <mxCell id="bRRxqf0Hs2Emt1WZWNBF-28" value="" style="shape=cylinder3;whiteSpace=wrap;html=1;boundedLbl=1;backgroundOutline=1;size=15;" parent="1" vertex="1">
          <mxGeometry x="1500" y="3405" width="60" height="80" as="geometry" />
        </mxCell>
        <mxCell id="bRRxqf0Hs2Emt1WZWNBF-29" value="" style="endArrow=classic;startArrow=classic;html=1;rounded=0;entryX=0.087;entryY=1.028;entryDx=0;entryDy=0;entryPerimeter=0;" parent="1" source="bRRxqf0Hs2Emt1WZWNBF-28" edge="1">
          <mxGeometry width="50" height="50" relative="1" as="geometry">
            <mxPoint x="2360" y="3423" as="sourcePoint" />
            <mxPoint x="1531" y="3275" as="targetPoint" />
          </mxGeometry>
        </mxCell>
        <mxCell id="bRRxqf0Hs2Emt1WZWNBF-30" value="module_name&lt;div&gt;version_id&lt;/div&gt;" style="text;strokeColor=none;align=center;fillColor=none;html=1;verticalAlign=middle;whiteSpace=wrap;rounded=0;" parent="1" vertex="1">
          <mxGeometry x="1550" y="3324" width="60" height="30" as="geometry" />
        </mxCell>
        <mxCell id="bRRxqf0Hs2Emt1WZWNBF-31" value="" style="shape=cylinder3;whiteSpace=wrap;html=1;boundedLbl=1;backgroundOutline=1;size=15;" parent="1" vertex="1">
          <mxGeometry x="1675" y="4165" width="60" height="80" as="geometry" />
        </mxCell>
        <mxCell id="bRRxqf0Hs2Emt1WZWNBF-32" value="" style="endArrow=classic;startArrow=classic;html=1;rounded=0;entryX=0.087;entryY=1.028;entryDx=0;entryDy=0;entryPerimeter=0;" parent="1" source="bRRxqf0Hs2Emt1WZWNBF-31" edge="1">
          <mxGeometry width="50" height="50" relative="1" as="geometry">
            <mxPoint x="2535" y="4183" as="sourcePoint" />
            <mxPoint x="1706" y="4035" as="targetPoint" />
          </mxGeometry>
        </mxCell>
        <mxCell id="bRRxqf0Hs2Emt1WZWNBF-33" value="config in db" style="text;strokeColor=none;align=center;fillColor=none;html=1;verticalAlign=middle;whiteSpace=wrap;rounded=0;" parent="1" vertex="1">
          <mxGeometry x="1634.5" y="4085" width="60" height="30" as="geometry" />
        </mxCell>
        <mxCell id="FLWRcTdQohv8ZEM-ZqKv-1" value="Actor" style="shape=umlActor;verticalLabelPosition=bottom;verticalAlign=top;html=1;outlineConnect=0;" parent="1" vertex="1">
          <mxGeometry x="470" y="4114" width="30" height="60" as="geometry" />
        </mxCell>
        <mxCell id="FLWRcTdQohv8ZEM-ZqKv-2" value="" style="endArrow=classic;startArrow=classic;html=1;rounded=0;exitX=0.5;exitY=0;exitDx=0;exitDy=0;exitPerimeter=0;entryX=0.112;entryY=0.967;entryDx=0;entryDy=0;entryPerimeter=0;" parent="1" source="FLWRcTdQohv8ZEM-ZqKv-1" target="bRRxqf0Hs2Emt1WZWNBF-3" edge="1">
          <mxGeometry width="50" height="50" relative="1" as="geometry">
            <mxPoint x="1020" y="4110" as="sourcePoint" />
            <mxPoint x="1070" y="4060" as="targetPoint" />
          </mxGeometry>
        </mxCell>
        <mxCell id="FLWRcTdQohv8ZEM-ZqKv-3" value="version&lt;div&gt;CRUD&lt;/div&gt;&lt;div&gt;deploy&lt;/div&gt;" style="text;strokeColor=none;align=center;fillColor=none;html=1;verticalAlign=middle;whiteSpace=wrap;rounded=0;" parent="1" vertex="1">
          <mxGeometry x="410" y="4060" width="60" height="30" as="geometry" />
        </mxCell>
        <mxCell id="FLWRcTdQohv8ZEM-ZqKv-4" value="&lt;b&gt;gRPC&lt;/b&gt;" style="text;strokeColor=none;align=center;fillColor=none;html=1;verticalAlign=middle;whiteSpace=wrap;rounded=0;" parent="1" vertex="1">
          <mxGeometry x="1090" y="4006" width="60" height="30" as="geometry" />
        </mxCell>
        <mxCell id="FLWRcTdQohv8ZEM-ZqKv-5" value="import file to a new version" style="text;strokeColor=none;align=center;fillColor=none;html=1;verticalAlign=middle;whiteSpace=wrap;rounded=0;" parent="1" vertex="1">
          <mxGeometry x="493" y="4061" width="60" height="30" as="geometry" />
        </mxCell>
        <mxCell id="gI02vzycZekQ9hK0RCXp-1" value="" style="rounded=1;whiteSpace=wrap;html=1;fillColor=#ffe6cc;strokeColor=#d79b00;glass=0;shadow=1;" parent="1" vertex="1">
          <mxGeometry x="1195" y="1760" width="525" height="505" as="geometry" />
        </mxCell>
        <mxCell id="gI02vzycZekQ9hK0RCXp-2" value="" style="rounded=1;whiteSpace=wrap;html=1;fillColor=#ffe6cc;strokeColor=#d79b00;shadow=1;" parent="1" vertex="1">
          <mxGeometry x="537" y="1760" width="510" height="505" as="geometry" />
        </mxCell>
        <mxCell id="gI02vzycZekQ9hK0RCXp-3" value="&lt;span style=&quot;font-size: 12px;&quot; data-lucid-content=&quot;{&amp;quot;t&amp;quot;:&amp;quot;CorteX Backend Service&amp;quot;,&amp;quot;m&amp;quot;:[{&amp;quot;s&amp;quot;:0,&amp;quot;n&amp;quot;:&amp;quot;fsp&amp;quot;,&amp;quot;v&amp;quot;:&amp;quot;ss_presetShapeStyle1_textStyle&amp;quot;,&amp;quot;e&amp;quot;:22},{&amp;quot;s&amp;quot;:0,&amp;quot;n&amp;quot;:&amp;quot;fsp2&amp;quot;,&amp;quot;v&amp;quot;:&amp;quot;ss_presetShapeStyle1_textStyle&amp;quot;,&amp;quot;e&amp;quot;:22},{&amp;quot;s&amp;quot;:0,&amp;quot;n&amp;quot;:&amp;quot;s&amp;quot;,&amp;quot;v&amp;quot;:22.22222222222222,&amp;quot;e&amp;quot;:22}]}&quot; data-lucid-type=&quot;application/vnd.lucid.text&quot;&gt;StartX&lt;span style=&quot;font-size: 12px;&quot;&gt;&amp;nbsp;Backend Service&lt;/span&gt;&lt;/span&gt;" style="rounded=0;whiteSpace=wrap;html=1;fontSize=12;fontStyle=0;fontColor=default;fontFamily=Helvetica;" parent="1" vertex="1">
          <mxGeometry x="590" y="1987" width="420" height="60" as="geometry" />
        </mxCell>
        <mxCell id="gI02vzycZekQ9hK0RCXp-4" value="&lt;span style=&quot;font-size: 12px;&quot; data-lucid-content=&quot;{&amp;quot;t&amp;quot;:&amp;quot;CorteX Backend Service&amp;quot;,&amp;quot;m&amp;quot;:[{&amp;quot;s&amp;quot;:0,&amp;quot;n&amp;quot;:&amp;quot;fsp&amp;quot;,&amp;quot;v&amp;quot;:&amp;quot;ss_presetShapeStyle1_textStyle&amp;quot;,&amp;quot;e&amp;quot;:22},{&amp;quot;s&amp;quot;:0,&amp;quot;n&amp;quot;:&amp;quot;fsp2&amp;quot;,&amp;quot;v&amp;quot;:&amp;quot;ss_presetShapeStyle1_textStyle&amp;quot;,&amp;quot;e&amp;quot;:22},{&amp;quot;s&amp;quot;:0,&amp;quot;n&amp;quot;:&amp;quot;s&amp;quot;,&amp;quot;v&amp;quot;:22.22222222222222,&amp;quot;e&amp;quot;:22}]}&quot; data-lucid-type=&quot;application/vnd.lucid.text&quot;&gt;&lt;span style=&quot;font-size: 12px;&quot;&gt;Optix Backend Service&lt;/span&gt;&lt;/span&gt;" style="rounded=0;whiteSpace=wrap;html=1;fontSize=12;fontStyle=0;fontColor=default;fontFamily=Helvetica;" parent="1" vertex="1">
          <mxGeometry x="1250" y="1987" width="400" height="60" as="geometry" />
        </mxCell>
        <mxCell id="gI02vzycZekQ9hK0RCXp-7" value="camera" style="rounded=0;whiteSpace=wrap;html=1;fontSize=12;fontStyle=0;fontColor=default;fontFamily=Helvetica;" parent="1" vertex="1">
          <mxGeometry x="1250" y="2117" width="170" height="60" as="geometry" />
        </mxCell>
        <mxCell id="gI02vzycZekQ9hK0RCXp-9" value="&lt;div style=&quot;font-size: 12px;&quot;&gt;usb3&lt;br style=&quot;font-size: 12px;&quot;&gt;&lt;/div&gt;" style="text;strokeColor=none;align=center;fillColor=none;html=1;verticalAlign=middle;whiteSpace=wrap;rounded=0;fontSize=12;fontStyle=0;fontColor=default;fontFamily=Helvetica;" parent="1" vertex="1">
          <mxGeometry x="1270" y="2060" width="60" height="40" as="geometry" />
        </mxCell>
        <mxCell id="gI02vzycZekQ9hK0RCXp-21" value="" style="endArrow=classic;html=1;rounded=0;exitX=0.204;exitY=0.977;exitDx=0;exitDy=0;exitPerimeter=0;" parent="1" source="gI02vzycZekQ9hK0RCXp-3" target="gI02vzycZekQ9hK0RCXp-35" edge="1">
          <mxGeometry width="50" height="50" relative="1" as="geometry">
            <mxPoint x="1130" y="2187" as="sourcePoint" />
            <mxPoint x="675" y="2117" as="targetPoint" />
          </mxGeometry>
        </mxCell>
        <mxCell id="gI02vzycZekQ9hK0RCXp-27" value="Central" style="text;strokeColor=none;align=center;fillColor=none;html=1;verticalAlign=middle;whiteSpace=wrap;rounded=0;fontSize=20;fontStyle=1" parent="1" vertex="1">
          <mxGeometry x="761" y="2215" width="60" height="30" as="geometry" />
        </mxCell>
        <mxCell id="gI02vzycZekQ9hK0RCXp-28" value="Edge" style="text;strokeColor=none;align=center;fillColor=none;html=1;verticalAlign=middle;whiteSpace=wrap;rounded=0;fontSize=20;fontStyle=1" parent="1" vertex="1">
          <mxGeometry x="1427" y="2215" width="60" height="30" as="geometry" />
        </mxCell>
        <mxCell id="gI02vzycZekQ9hK0RCXp-29" value="" style="shape=cylinder3;whiteSpace=wrap;html=1;boundedLbl=1;backgroundOutline=1;size=15;" parent="1" vertex="1">
          <mxGeometry x="1535" y="2107" width="60" height="80" as="geometry" />
        </mxCell>
        <mxCell id="gI02vzycZekQ9hK0RCXp-30" value="" style="endArrow=classic;startArrow=classic;html=1;rounded=0;entryX=0.79;entryY=1.056;entryDx=0;entryDy=0;entryPerimeter=0;" parent="1" source="gI02vzycZekQ9hK0RCXp-29" target="gI02vzycZekQ9hK0RCXp-4" edge="1">
          <mxGeometry width="50" height="50" relative="1" as="geometry">
            <mxPoint x="1303" y="2197" as="sourcePoint" />
            <mxPoint x="1353" y="2147" as="targetPoint" />
          </mxGeometry>
        </mxCell>
        <mxCell id="gI02vzycZekQ9hK0RCXp-33" value="" style="endArrow=classic;html=1;rounded=0;exitX=1;exitY=0.25;exitDx=0;exitDy=0;entryX=0;entryY=0.25;entryDx=0;entryDy=0;" parent="1" source="gI02vzycZekQ9hK0RCXp-3" target="gI02vzycZekQ9hK0RCXp-4" edge="1">
          <mxGeometry width="50" height="50" relative="1" as="geometry">
            <mxPoint x="1303" y="2197" as="sourcePoint" />
            <mxPoint x="1353" y="2147" as="targetPoint" />
          </mxGeometry>
        </mxCell>
        <mxCell id="gI02vzycZekQ9hK0RCXp-34" value="" style="endArrow=classic;html=1;rounded=0;exitX=0;exitY=0.75;exitDx=0;exitDy=0;" parent="1" source="gI02vzycZekQ9hK0RCXp-4" edge="1">
          <mxGeometry width="50" height="50" relative="1" as="geometry">
            <mxPoint x="1303" y="2197" as="sourcePoint" />
            <mxPoint x="1013" y="2032" as="targetPoint" />
          </mxGeometry>
        </mxCell>
        <mxCell id="gI02vzycZekQ9hK0RCXp-35" value="" style="shape=cylinder3;whiteSpace=wrap;html=1;boundedLbl=1;backgroundOutline=1;size=15;" parent="1" vertex="1">
          <mxGeometry x="645" y="2117" width="60" height="80" as="geometry" />
        </mxCell>
        <mxCell id="gI02vzycZekQ9hK0RCXp-38" value="" style="endArrow=classic;startArrow=classic;html=1;rounded=0;exitX=0.5;exitY=0;exitDx=0;exitDy=0;entryX=0.215;entryY=0.983;entryDx=0;entryDy=0;entryPerimeter=0;" parent="1" source="gI02vzycZekQ9hK0RCXp-7" target="gI02vzycZekQ9hK0RCXp-4" edge="1">
          <mxGeometry width="50" height="50" relative="1" as="geometry">
            <mxPoint x="1020" y="2190" as="sourcePoint" />
            <mxPoint x="1070" y="2140" as="targetPoint" />
          </mxGeometry>
        </mxCell>
        <mxCell id="gI02vzycZekQ9hK0RCXp-40" value="web UI" style="ellipse;whiteSpace=wrap;html=1;aspect=fixed;" parent="1" vertex="1">
          <mxGeometry x="635" y="1830" width="80" height="80" as="geometry" />
        </mxCell>
        <mxCell id="gI02vzycZekQ9hK0RCXp-41" value="" style="endArrow=classic;startArrow=classic;html=1;rounded=0;exitX=0.202;exitY=0.033;exitDx=0;exitDy=0;exitPerimeter=0;entryX=0.5;entryY=1;entryDx=0;entryDy=0;" parent="1" source="gI02vzycZekQ9hK0RCXp-3" target="gI02vzycZekQ9hK0RCXp-40" edge="1">
          <mxGeometry width="50" height="50" relative="1" as="geometry">
            <mxPoint x="1020" y="2190" as="sourcePoint" />
            <mxPoint x="1070" y="2140" as="targetPoint" />
          </mxGeometry>
        </mxCell>
        <mxCell id="gI02vzycZekQ9hK0RCXp-43" value="" style="edgeStyle=segmentEdgeStyle;endArrow=classic;html=1;curved=0;rounded=0;endSize=8;startSize=8;exitX=1;exitY=0.5;exitDx=0;exitDy=0;entryX=0.5;entryY=0;entryDx=0;entryDy=0;" parent="1" source="gI02vzycZekQ9hK0RCXp-40" target="gI02vzycZekQ9hK0RCXp-4" edge="1">
          <mxGeometry width="50" height="50" relative="1" as="geometry">
            <mxPoint x="1020" y="2190" as="sourcePoint" />
            <mxPoint x="1070" y="2140" as="targetPoint" />
          </mxGeometry>
        </mxCell>
        <mxCell id="gI02vzycZekQ9hK0RCXp-44" value="http://{edge_name}:10001/perception/api/v1/capture/live_feed" style="text;strokeColor=none;align=center;fillColor=none;html=1;verticalAlign=middle;whiteSpace=wrap;rounded=0;" parent="1" vertex="1">
          <mxGeometry x="849" y="1830" width="60" height="30" as="geometry" />
        </mxCell>
        <mxCell id="gI02vzycZekQ9hK0RCXp-45" value="perception.db" style="text;strokeColor=none;align=center;fillColor=none;html=1;verticalAlign=middle;whiteSpace=wrap;rounded=0;" parent="1" vertex="1">
          <mxGeometry x="730" y="2142" width="60" height="30" as="geometry" />
        </mxCell>
        <mxCell id="gI02vzycZekQ9hK0RCXp-46" value="perception.db" style="text;strokeColor=none;align=center;fillColor=none;html=1;verticalAlign=middle;whiteSpace=wrap;rounded=0;" parent="1" vertex="1">
          <mxGeometry x="1620" y="2132" width="60" height="30" as="geometry" />
        </mxCell>
        <mxCell id="R5u4yUBQq1oco-GMwaCk-3" value="module_name&lt;div&gt;version_id&lt;/div&gt;" style="text;strokeColor=none;align=center;fillColor=none;html=1;verticalAlign=middle;whiteSpace=wrap;rounded=0;" parent="1" vertex="1">
          <mxGeometry x="1728" y="4085" width="60" height="30" as="geometry" />
        </mxCell>
        <mxCell id="R5u4yUBQq1oco-GMwaCk-4" value="config in file" style="text;strokeColor=none;align=center;fillColor=none;html=1;verticalAlign=middle;whiteSpace=wrap;rounded=0;" parent="1" vertex="1">
          <mxGeometry x="1553" y="4085" width="60" height="30" as="geometry" />
        </mxCell>
        <mxCell id="R5u4yUBQq1oco-GMwaCk-5" value="config in db" style="text;strokeColor=none;align=center;fillColor=none;html=1;verticalAlign=middle;whiteSpace=wrap;rounded=0;" parent="1" vertex="1">
          <mxGeometry x="821" y="4050" width="60" height="30" as="geometry" />
        </mxCell>
        <mxCell id="R5u4yUBQq1oco-GMwaCk-6" value="Actor" style="shape=umlActor;verticalLabelPosition=bottom;verticalAlign=top;html=1;outlineConnect=0;" parent="1" vertex="1">
          <mxGeometry x="1350" y="4175" width="30" height="60" as="geometry" />
        </mxCell>
        <mxCell id="R5u4yUBQq1oco-GMwaCk-7" value="" style="endArrow=classic;startArrow=classic;html=1;rounded=0;exitX=0.5;exitY=0;exitDx=0;exitDy=0;exitPerimeter=0;entryX=0.112;entryY=0.967;entryDx=0;entryDy=0;entryPerimeter=0;" parent="1" source="R5u4yUBQq1oco-GMwaCk-6" edge="1">
          <mxGeometry width="50" height="50" relative="1" as="geometry">
            <mxPoint x="1900" y="4113" as="sourcePoint" />
            <mxPoint x="1366" y="4036" as="targetPoint" />
          </mxGeometry>
        </mxCell>
        <mxCell id="R5u4yUBQq1oco-GMwaCk-8" value="Modify config" style="text;strokeColor=none;align=center;fillColor=none;html=1;verticalAlign=middle;whiteSpace=wrap;rounded=0;" parent="1" vertex="1">
          <mxGeometry x="1290" y="4085" width="60" height="30" as="geometry" />
        </mxCell>
        <mxCell id="gKqpf_e9eDg5dyG-ftxb-1" value="" style="rounded=1;whiteSpace=wrap;html=1;fillColor=#ffe6cc;strokeColor=#d79b00;glass=0;shadow=1;" parent="1" vertex="1">
          <mxGeometry x="1369" y="300" width="685" height="595" as="geometry" />
        </mxCell>
        <mxCell id="gKqpf_e9eDg5dyG-ftxb-2" value="" style="rounded=1;whiteSpace=wrap;html=1;fillColor=#ffe6cc;strokeColor=#d79b00;shadow=1;" parent="1" vertex="1">
          <mxGeometry x="410" y="300" width="677" height="602.5" as="geometry" />
        </mxCell>
        <mxCell id="gKqpf_e9eDg5dyG-ftxb-3" value="&lt;span style=&quot;font-size: 12px;&quot; data-lucid-content=&quot;{&amp;quot;t&amp;quot;:&amp;quot;CorteX Backend Service&amp;quot;,&amp;quot;m&amp;quot;:[{&amp;quot;s&amp;quot;:0,&amp;quot;n&amp;quot;:&amp;quot;fsp&amp;quot;,&amp;quot;v&amp;quot;:&amp;quot;ss_presetShapeStyle1_textStyle&amp;quot;,&amp;quot;e&amp;quot;:22},{&amp;quot;s&amp;quot;:0,&amp;quot;n&amp;quot;:&amp;quot;fsp2&amp;quot;,&amp;quot;v&amp;quot;:&amp;quot;ss_presetShapeStyle1_textStyle&amp;quot;,&amp;quot;e&amp;quot;:22},{&amp;quot;s&amp;quot;:0,&amp;quot;n&amp;quot;:&amp;quot;s&amp;quot;,&amp;quot;v&amp;quot;:22.22222222222222,&amp;quot;e&amp;quot;:22}]}&quot; data-lucid-type=&quot;application/vnd.lucid.text&quot;&gt;&lt;span style=&quot;font-size: 12px;&quot;&gt;Central Backend Service&lt;/span&gt;&lt;/span&gt;" style="rounded=0;whiteSpace=wrap;html=1;fontSize=12;fontStyle=0;fontColor=default;fontFamily=Helvetica;" parent="1" vertex="1">
          <mxGeometry x="460" y="485" width="587" height="60" as="geometry" />
        </mxCell>
        <mxCell id="gKqpf_e9eDg5dyG-ftxb-4" value="&lt;span style=&quot;font-size: 12px;&quot; data-lucid-content=&quot;{&amp;quot;t&amp;quot;:&amp;quot;CorteX Backend Service&amp;quot;,&amp;quot;m&amp;quot;:[{&amp;quot;s&amp;quot;:0,&amp;quot;n&amp;quot;:&amp;quot;fsp&amp;quot;,&amp;quot;v&amp;quot;:&amp;quot;ss_presetShapeStyle1_textStyle&amp;quot;,&amp;quot;e&amp;quot;:22},{&amp;quot;s&amp;quot;:0,&amp;quot;n&amp;quot;:&amp;quot;fsp2&amp;quot;,&amp;quot;v&amp;quot;:&amp;quot;ss_presetShapeStyle1_textStyle&amp;quot;,&amp;quot;e&amp;quot;:22},{&amp;quot;s&amp;quot;:0,&amp;quot;n&amp;quot;:&amp;quot;s&amp;quot;,&amp;quot;v&amp;quot;:22.22222222222222,&amp;quot;e&amp;quot;:22}]}&quot; data-lucid-type=&quot;application/vnd.lucid.text&quot;&gt;&lt;span style=&quot;font-size: 12px;&quot;&gt;StartX Backend Service&lt;/span&gt;&lt;/span&gt;" style="rounded=0;whiteSpace=wrap;html=1;fontSize=12;fontStyle=0;fontColor=default;fontFamily=Helvetica;" parent="1" vertex="1">
          <mxGeometry x="1421" y="485" width="573" height="60" as="geometry" />
        </mxCell>
        <mxCell id="gKqpf_e9eDg5dyG-ftxb-5" value="&lt;div style=&quot;font-size: 12px;&quot;&gt;register(edge_id, edge_name)&lt;/div&gt;&lt;div style=&quot;font-size: 12px;&quot;&gt;login(edge_id)&lt;/div&gt;" style="text;strokeColor=none;align=center;fillColor=none;html=1;verticalAlign=middle;whiteSpace=wrap;rounded=0;fontSize=12;fontStyle=0;fontColor=default;fontFamily=Helvetica;" parent="1" vertex="1">
          <mxGeometry x="1170" y="471" width="120" height="30" as="geometry" />
        </mxCell>
        <mxCell id="gKqpf_e9eDg5dyG-ftxb-8" value="model,threshold,post-process" style="rounded=0;whiteSpace=wrap;html=1;fontSize=12;fontStyle=0;fontColor=default;fontFamily=Helvetica;" parent="1" vertex="1">
          <mxGeometry x="627" y="735" width="170" height="60" as="geometry" />
        </mxCell>
        <mxCell id="gKqpf_e9eDg5dyG-ftxb-9" value="model,threshold,post-process,optix-config" style="rounded=0;whiteSpace=wrap;html=1;fontSize=12;fontStyle=0;fontColor=default;fontFamily=Helvetica;" parent="1" vertex="1">
          <mxGeometry x="1634" y="690" width="170" height="60" as="geometry" />
        </mxCell>
        <mxCell id="gKqpf_e9eDg5dyG-ftxb-10" value="" style="endArrow=classic;html=1;rounded=0;exitX=0.795;exitY=1.057;exitDx=0;exitDy=0;exitPerimeter=0;entryX=0.5;entryY=0;entryDx=0;entryDy=0;" parent="1" edge="1">
          <mxGeometry width="50" height="50" relative="1" as="geometry">
            <mxPoint x="1717.0000000000002" y="546.3800000000001" as="sourcePoint" />
            <mxPoint x="1717" y="690" as="targetPoint" />
          </mxGeometry>
        </mxCell>
        <mxCell id="gKqpf_e9eDg5dyG-ftxb-11" value="~/unitx_data/module_version/&lt;div&gt;{module_name}/{version_id}&lt;/div&gt;" style="rounded=0;whiteSpace=wrap;html=1;fontSize=12;fontStyle=0;fontColor=default;fontFamily=Helvetica;" parent="1" vertex="1">
          <mxGeometry x="627" y="615" width="170" height="60" as="geometry" />
        </mxCell>
        <mxCell id="gKqpf_e9eDg5dyG-ftxb-12" value="" style="endArrow=classic;html=1;rounded=0;exitX=0.5;exitY=0;exitDx=0;exitDy=0;" parent="1" source="gKqpf_e9eDg5dyG-ftxb-8" target="gKqpf_e9eDg5dyG-ftxb-11" edge="1">
          <mxGeometry width="50" height="50" relative="1" as="geometry">
            <mxPoint x="1167" y="685" as="sourcePoint" />
            <mxPoint x="1217" y="635" as="targetPoint" />
          </mxGeometry>
        </mxCell>
        <mxCell id="gKqpf_e9eDg5dyG-ftxb-13" value="" style="endArrow=classic;html=1;rounded=0;exitX=0.429;exitY=0.977;exitDx=0;exitDy=0;exitPerimeter=0;entryX=0.5;entryY=0;entryDx=0;entryDy=0;" parent="1" edge="1">
          <mxGeometry width="50" height="50" relative="1" as="geometry">
            <mxPoint x="690.0029999999998" y="543.6199999999999" as="sourcePoint" />
            <mxPoint x="690.18" y="615" as="targetPoint" />
          </mxGeometry>
        </mxCell>
        <mxCell id="gKqpf_e9eDg5dyG-ftxb-14" value="save config by version id&lt;div&gt;&lt;/div&gt;" style="text;strokeColor=none;align=center;fillColor=none;html=1;verticalAlign=middle;whiteSpace=wrap;rounded=0;" parent="1" vertex="1">
          <mxGeometry x="610" y="560" width="70" height="30" as="geometry" />
        </mxCell>
        <mxCell id="gKqpf_e9eDg5dyG-ftxb-15" value="Central" style="text;strokeColor=none;align=center;fillColor=none;html=1;verticalAlign=middle;whiteSpace=wrap;rounded=0;fontSize=20;fontStyle=1" parent="1" vertex="1">
          <mxGeometry x="723.5" y="845" width="60" height="30" as="geometry" />
        </mxCell>
        <mxCell id="gKqpf_e9eDg5dyG-ftxb-16" value="Edge" style="text;strokeColor=none;align=center;fillColor=none;html=1;verticalAlign=middle;whiteSpace=wrap;rounded=0;fontSize=20;fontStyle=1" parent="1" vertex="1">
          <mxGeometry x="1681.5" y="845" width="60" height="30" as="geometry" />
        </mxCell>
        <mxCell id="gKqpf_e9eDg5dyG-ftxb-17" value="" style="shape=cylinder3;whiteSpace=wrap;html=1;boundedLbl=1;backgroundOutline=1;size=15;" parent="1" vertex="1">
          <mxGeometry x="896" y="610" width="60" height="80" as="geometry" />
        </mxCell>
        <mxCell id="gKqpf_e9eDg5dyG-ftxb-18" value="" style="endArrow=classic;startArrow=classic;html=1;rounded=0;entryX=0.087;entryY=1.028;entryDx=0;entryDy=0;entryPerimeter=0;" parent="1" source="gKqpf_e9eDg5dyG-ftxb-17" edge="1">
          <mxGeometry width="50" height="50" relative="1" as="geometry">
            <mxPoint x="1756" y="695" as="sourcePoint" />
            <mxPoint x="927.069" y="546.6800000000003" as="targetPoint" />
          </mxGeometry>
        </mxCell>
        <mxCell id="gKqpf_e9eDg5dyG-ftxb-20" value="module_name&lt;div&gt;version_id&lt;/div&gt;" style="text;strokeColor=none;align=center;fillColor=none;html=1;verticalAlign=middle;whiteSpace=wrap;rounded=0;" parent="1" vertex="1">
          <mxGeometry x="946" y="560" width="60" height="30" as="geometry" />
        </mxCell>
        <mxCell id="gKqpf_e9eDg5dyG-ftxb-21" value="" style="endArrow=classic;html=1;rounded=0;exitX=0.681;exitY=0;exitDx=0;exitDy=0;entryX=0.482;entryY=1.028;entryDx=0;entryDy=0;entryPerimeter=0;exitPerimeter=0;" parent="1" source="gKqpf_e9eDg5dyG-ftxb-11" target="gKqpf_e9eDg5dyG-ftxb-3" edge="1">
          <mxGeometry width="50" height="50" relative="1" as="geometry">
            <mxPoint x="745" y="620" as="sourcePoint" />
            <mxPoint x="754" y="545" as="targetPoint" />
          </mxGeometry>
        </mxCell>
        <mxCell id="gKqpf_e9eDg5dyG-ftxb-22" value="get config by version id" style="text;strokeColor=none;align=center;fillColor=none;html=1;verticalAlign=middle;whiteSpace=wrap;rounded=0;" parent="1" vertex="1">
          <mxGeometry x="747" y="560" width="60" height="30" as="geometry" />
        </mxCell>
        <mxCell id="gKqpf_e9eDg5dyG-ftxb-23" value="" style="shape=cylinder3;whiteSpace=wrap;html=1;boundedLbl=1;backgroundOutline=1;size=15;" parent="1" vertex="1">
          <mxGeometry x="1849" y="675" width="60" height="80" as="geometry" />
        </mxCell>
        <mxCell id="gKqpf_e9eDg5dyG-ftxb-24" value="" style="endArrow=classic;startArrow=classic;html=1;rounded=0;entryX=0.087;entryY=1.028;entryDx=0;entryDy=0;entryPerimeter=0;" parent="1" source="gKqpf_e9eDg5dyG-ftxb-23" edge="1">
          <mxGeometry width="50" height="50" relative="1" as="geometry">
            <mxPoint x="2709" y="693" as="sourcePoint" />
            <mxPoint x="1880" y="545" as="targetPoint" />
          </mxGeometry>
        </mxCell>
        <mxCell id="gKqpf_e9eDg5dyG-ftxb-25" value="config in db" style="text;strokeColor=none;align=center;fillColor=none;html=1;verticalAlign=middle;whiteSpace=wrap;rounded=0;" parent="1" vertex="1">
          <mxGeometry x="1808.5" y="595" width="60" height="30" as="geometry" />
        </mxCell>
        <mxCell id="gKqpf_e9eDg5dyG-ftxb-31" value="module_name&lt;div&gt;version_id&lt;/div&gt;" style="text;strokeColor=none;align=center;fillColor=none;html=1;verticalAlign=middle;whiteSpace=wrap;rounded=0;" parent="1" vertex="1">
          <mxGeometry x="1902" y="595" width="60" height="30" as="geometry" />
        </mxCell>
        <mxCell id="gKqpf_e9eDg5dyG-ftxb-32" value="config in file" style="text;strokeColor=none;align=center;fillColor=none;html=1;verticalAlign=middle;whiteSpace=wrap;rounded=0;" parent="1" vertex="1">
          <mxGeometry x="1727" y="595" width="60" height="30" as="geometry" />
        </mxCell>
        <mxCell id="gKqpf_e9eDg5dyG-ftxb-34" value="Actor" style="shape=umlActor;verticalLabelPosition=bottom;verticalAlign=top;html=1;outlineConnect=0;" parent="1" vertex="1">
          <mxGeometry x="1524" y="685" width="30" height="60" as="geometry" />
        </mxCell>
        <mxCell id="gKqpf_e9eDg5dyG-ftxb-35" value="" style="endArrow=classic;startArrow=classic;html=1;rounded=0;exitX=0.5;exitY=0;exitDx=0;exitDy=0;exitPerimeter=0;entryX=0.112;entryY=0.967;entryDx=0;entryDy=0;entryPerimeter=0;" parent="1" source="gKqpf_e9eDg5dyG-ftxb-34" edge="1">
          <mxGeometry width="50" height="50" relative="1" as="geometry">
            <mxPoint x="2074" y="623" as="sourcePoint" />
            <mxPoint x="1540" y="546" as="targetPoint" />
          </mxGeometry>
        </mxCell>
        <mxCell id="gKqpf_e9eDg5dyG-ftxb-36" value="switch prudoction type" style="text;strokeColor=none;align=center;fillColor=none;html=1;verticalAlign=middle;whiteSpace=wrap;rounded=0;" parent="1" vertex="1">
          <mxGeometry x="1464" y="595" width="60" height="30" as="geometry" />
        </mxCell>
        <mxCell id="gKqpf_e9eDg5dyG-ftxb-38" value="deploy" style="text;strokeColor=none;align=center;fillColor=none;html=1;verticalAlign=middle;whiteSpace=wrap;rounded=0;" parent="1" vertex="1">
          <mxGeometry x="1200" y="530" width="60" height="30" as="geometry" />
        </mxCell>
        <mxCell id="gKqpf_e9eDg5dyG-ftxb-39" value="dict to store edge_name and connetcion" style="rounded=0;whiteSpace=wrap;html=1;" parent="1" vertex="1">
          <mxGeometry x="463" y="615" width="120" height="60" as="geometry" />
        </mxCell>
        <mxCell id="gKqpf_e9eDg5dyG-ftxb-41" value="add connection to dict" style="text;strokeColor=none;align=center;fillColor=none;html=1;verticalAlign=middle;whiteSpace=wrap;rounded=0;" parent="1" vertex="1">
          <mxGeometry x="450" y="565" width="60" height="30" as="geometry" />
        </mxCell>
        <mxCell id="gKqpf_e9eDg5dyG-ftxb-42" value="get connection by edge name" style="text;strokeColor=none;align=center;fillColor=none;html=1;verticalAlign=middle;whiteSpace=wrap;rounded=0;" parent="1" vertex="1">
          <mxGeometry x="530" y="565" width="60" height="30" as="geometry" />
        </mxCell>
        <mxCell id="gKqpf_e9eDg5dyG-ftxb-45" value="&lt;span style=&quot;font-size: 20px;&quot;&gt;&lt;font style=&quot;font-size: 20px;&quot;&gt;Proxy(nginx) when migrate to cloud&lt;/font&gt;&lt;/span&gt;" style="text;strokeColor=none;align=center;fillColor=none;html=1;verticalAlign=middle;whiteSpace=wrap;rounded=0;fontStyle=1;fontSize=20;" parent="1" vertex="1">
          <mxGeometry x="1200" y="815" width="60" height="30" as="geometry" />
        </mxCell>
        <mxCell id="gKqpf_e9eDg5dyG-ftxb-46" value="tcp server: 18890" style="text;strokeColor=none;align=center;fillColor=none;html=1;verticalAlign=middle;whiteSpace=wrap;rounded=0;" parent="1" vertex="1">
          <mxGeometry x="1090" y="472" width="60" height="30" as="geometry" />
        </mxCell>
        <mxCell id="gKqpf_e9eDg5dyG-ftxb-47" value="tcp client" style="text;strokeColor=none;align=center;fillColor=none;html=1;verticalAlign=middle;whiteSpace=wrap;rounded=0;" parent="1" vertex="1">
          <mxGeometry x="1305" y="471" width="60" height="30" as="geometry" />
        </mxCell>
        <mxCell id="gKqpf_e9eDg5dyG-ftxb-48" value="{&quot;edge_id1&quot;:&quot;connection_a&quot;,&lt;div&gt;&quot;edge_id2&quot;:&quot;connection_b&quot;}&lt;/div&gt;" style="text;strokeColor=none;align=center;fillColor=none;html=1;verticalAlign=middle;whiteSpace=wrap;rounded=0;" parent="1" vertex="1">
          <mxGeometry x="493" y="690" width="60" height="30" as="geometry" />
        </mxCell>
        <mxCell id="gKqpf_e9eDg5dyG-ftxb-49" value="get edge_id from hardware_id&lt;div&gt;&lt;/div&gt;" style="rounded=0;whiteSpace=wrap;html=1;" parent="1" vertex="1">
          <mxGeometry x="1649" y="350" width="140" height="60" as="geometry" />
        </mxCell>
        <mxCell id="gKqpf_e9eDg5dyG-ftxb-50" value="" style="endArrow=classic;html=1;rounded=0;exitX=0.5;exitY=1;exitDx=0;exitDy=0;entryX=0.519;entryY=-0.014;entryDx=0;entryDy=0;entryPerimeter=0;" parent="1" source="gKqpf_e9eDg5dyG-ftxb-49" target="gKqpf_e9eDg5dyG-ftxb-4" edge="1">
          <mxGeometry width="50" height="50" relative="1" as="geometry">
            <mxPoint x="1190" y="600" as="sourcePoint" />
            <mxPoint x="1240" y="550" as="targetPoint" />
          </mxGeometry>
        </mxCell>
        <mxCell id="A0os70W1cciP07NkFoSd-2" value="chrome" style="ellipse;whiteSpace=wrap;html=1;aspect=fixed;" parent="1" vertex="1">
          <mxGeometry x="697" y="320" width="80" height="80" as="geometry" />
        </mxCell>
        <mxCell id="A0os70W1cciP07NkFoSd-3" value="" style="endArrow=classic;startArrow=classic;html=1;rounded=0;exitX=0.5;exitY=1;exitDx=0;exitDy=0;entryX=0.472;entryY=0.011;entryDx=0;entryDy=0;entryPerimeter=0;" parent="1" source="A0os70W1cciP07NkFoSd-2" target="gKqpf_e9eDg5dyG-ftxb-3" edge="1">
          <mxGeometry width="50" height="50" relative="1" as="geometry">
            <mxPoint x="1190" y="600" as="sourcePoint" />
            <mxPoint x="1240" y="550" as="targetPoint" />
          </mxGeometry>
        </mxCell>
        <mxCell id="A0os70W1cciP07NkFoSd-4" value="" style="endArrow=classic;startArrow=classic;html=1;rounded=0;entryX=0.103;entryY=0.969;entryDx=0;entryDy=0;entryPerimeter=0;" parent="1" target="gKqpf_e9eDg5dyG-ftxb-3" edge="1">
          <mxGeometry width="50" height="50" relative="1" as="geometry">
            <mxPoint x="520" y="615" as="sourcePoint" />
            <mxPoint x="570" y="565" as="targetPoint" />
          </mxGeometry>
        </mxCell>
        <mxCell id="UAvYdJziN61d-JV06YOF-1" value="http server: 18889" style="text;strokeColor=none;align=center;fillColor=none;html=1;verticalAlign=middle;whiteSpace=wrap;rounded=0;" parent="1" vertex="1">
          <mxGeometry x="640" y="441" width="77" height="30" as="geometry" />
        </mxCell>
        <mxCell id="UAvYdJziN61d-JV06YOF-3" value="" style="endArrow=classic;startArrow=classic;html=1;rounded=0;exitX=1;exitY=0.5;exitDx=0;exitDy=0;entryX=0;entryY=0.5;entryDx=0;entryDy=0;" parent="1" source="gKqpf_e9eDg5dyG-ftxb-3" target="gKqpf_e9eDg5dyG-ftxb-4" edge="1">
          <mxGeometry width="50" height="50" relative="1" as="geometry">
            <mxPoint x="1120" y="610" as="sourcePoint" />
            <mxPoint x="1170" y="560" as="targetPoint" />
          </mxGeometry>
        </mxCell>
        <mxCell id="UAvYdJziN61d-JV06YOF-4" value="optix-config&lt;div&gt;startx-config&lt;/div&gt;" style="text;strokeColor=none;align=center;fillColor=none;html=1;verticalAlign=middle;whiteSpace=wrap;rounded=0;" parent="1" vertex="1">
          <mxGeometry x="963" y="635" width="80" height="30" as="geometry" />
        </mxCell>
        <mxCell id="QuqT4l6kd2xy0rgmF0ry-1" value="Pool" style="swimlane;childLayout=stackLayout;resizeParent=1;resizeParentMax=0;startSize=20;html=1;" vertex="1" parent="1">
          <mxGeometry x="1010.0000000000005" y="1170" width="360" height="480" as="geometry" />
        </mxCell>
        <mxCell id="QuqT4l6kd2xy0rgmF0ry-2" value="Lane 1" style="swimlane;startSize=20;html=1;" vertex="1" parent="QuqT4l6kd2xy0rgmF0ry-1">
          <mxGeometry y="20" width="120" height="460" as="geometry" />
        </mxCell>
        <mxCell id="QuqT4l6kd2xy0rgmF0ry-3" value="Lane 2" style="swimlane;startSize=20;html=1;" vertex="1" parent="QuqT4l6kd2xy0rgmF0ry-1">
          <mxGeometry x="120" y="20" width="120" height="460" as="geometry" />
        </mxCell>
        <mxCell id="QuqT4l6kd2xy0rgmF0ry-4" value="Lane 3" style="swimlane;startSize=20;html=1;" vertex="1" parent="QuqT4l6kd2xy0rgmF0ry-1">
          <mxGeometry x="240" y="20" width="120" height="460" as="geometry" />
        </mxCell>
        <mxCell id="QuqT4l6kd2xy0rgmF0ry-5" value="Pool" style="swimlane;childLayout=stackLayout;resizeParent=1;resizeParentMax=0;startSize=20;html=1;" vertex="1" parent="1">
          <mxGeometry x="1010.0000000000005" y="1170" width="360" height="480" as="geometry" />
        </mxCell>
        <mxCell id="QuqT4l6kd2xy0rgmF0ry-6" value="Lane 1" style="swimlane;startSize=20;html=1;" vertex="1" parent="QuqT4l6kd2xy0rgmF0ry-5">
          <mxGeometry y="20" width="120" height="460" as="geometry" />
        </mxCell>
        <mxCell id="QuqT4l6kd2xy0rgmF0ry-7" value="Lane 2" style="swimlane;startSize=20;html=1;" vertex="1" parent="QuqT4l6kd2xy0rgmF0ry-5">
          <mxGeometry x="120" y="20" width="120" height="460" as="geometry" />
        </mxCell>
        <mxCell id="QuqT4l6kd2xy0rgmF0ry-8" value="Lane 3" style="swimlane;startSize=20;html=1;" vertex="1" parent="QuqT4l6kd2xy0rgmF0ry-5">
          <mxGeometry x="240" y="20" width="120" height="460" as="geometry" />
        </mxCell>
        <mxCell id="QuqT4l6kd2xy0rgmF0ry-9" value="Pool" style="swimlane;childLayout=stackLayout;resizeParent=1;resizeParentMax=0;startSize=20;html=1;" vertex="1" parent="1">
          <mxGeometry x="1370.0000000000005" y="1170" width="360" height="480" as="geometry" />
        </mxCell>
        <mxCell id="QuqT4l6kd2xy0rgmF0ry-10" value="Lane 1" style="swimlane;startSize=20;html=1;" vertex="1" parent="QuqT4l6kd2xy0rgmF0ry-9">
          <mxGeometry y="20" width="120" height="460" as="geometry" />
        </mxCell>
        <mxCell id="QuqT4l6kd2xy0rgmF0ry-11" value="Lane 2" style="swimlane;startSize=20;html=1;" vertex="1" parent="QuqT4l6kd2xy0rgmF0ry-9">
          <mxGeometry x="120" y="20" width="120" height="460" as="geometry" />
        </mxCell>
        <mxCell id="QuqT4l6kd2xy0rgmF0ry-12" value="Lane 3" style="swimlane;startSize=20;html=1;" vertex="1" parent="QuqT4l6kd2xy0rgmF0ry-9">
          <mxGeometry x="240" y="20" width="120" height="460" as="geometry" />
        </mxCell>
      </root>
    </mxGraphModel>
  </diagram>
</mxfile>
